PathFileType	4	(X/Y/Z)	OpenSim_Sub08_EMGStiffKnee_Accel.trc
DataRate	CameraRate	NumFrames	NumMarkers	Units	OrigDataRate	OrigDataStartFrame	OrigNumFrames
100	100	31	8	m	100	3939	6301
Frame#	Time	torso_imu_offset_imu	pelvis_imu_offset_imu	tibia_r_imu_offset_imu	femur_r_imu_offset_imu	tibia_l_imu_offset_imu	femur_l_imu_offset_imu	toes_r_imu_offset_imu	toes_l_imu_offset_imu
				X1	Y1	Z1	X2	Y2	Z2	X3	Y3	Z3	X4	Y4	Z4	X5	Y5	Z5	X6	Y6	Z6	X7	Y7	Z7	X8		Y8	Z8	

3939	39.38000000	10.69631394	-0.81200886	4.96076202	9.82901236	-1.13893793	4.55985585	9.76195475	2.77478414	-2.41738809	9.12442591	1.89436258	1.75392023	1.36515390	-10.43817156	0.45834686	12.42511115	-0.47784524	1.51791793	5.36218256	-3.07559808	7.83214258	-1.92102339	6.31813676	8.31242236
3940	39.39000000	10.06724569	-0.46222982	5.21944886	9.64731766	-2.12236271	4.40450737	9.64946022	4.35075047	-1.47567835	8.94681752	1.71917823	1.03693317	0.91978004	-8.49636153	1.75941802	12.05752803	0.88657059	1.32944267	5.67854838	-2.59538667	7.95961176	-1.82160414	1.04078571	7.05560131
3941	39.40000000	9.44117166	-0.13080850	5.45263323	9.22106891	-2.47559902	4.17716021	9.29010852	3.74931525	-0.88160587	8.98155767	1.10805444	0.42584674	1.12338173	-7.82916947	2.39695376	11.77763963	2.26793095	1.13181547	5.25323865	-1.98853442	8.40653400	-2.25073734	-2.61288803	6.25331279
3942	39.41000000	9.13406508	0.09351941	5.50964537	8.77452042	-2.14339824	3.99117675	9.49168074	1.51123651	-0.24473662	9.31560403	0.42126389	-0.07230589	1.38609889	-8.50618712	1.94572848	11.26236119	3.20548718	0.95211626	4.97250929	-1.54800768	8.54634319	-2.54033448	-2.26750362	6.77317218
3943	39.42000000	9.02818961	0.21479642	5.63497020	8.35802068	-1.33228484	3.95342467	9.98057934	-0.96319532	-0.00936023	9.53090083	-0.47614809	-0.08288501	1.71793067	-9.14356982	1.82945086	10.62125545	3.29949054	0.81793754	5.01995123	-1.38604587	8.68803138	-1.41817974	0.52125518	8.43004959
3944	39.43000000	8.85663761	0.40622342	5.72605759	8.22508075	-0.28466537	3.81368524	10.25170866	-3.17702882	-0.07146815	9.45064245	-1.43439429	0.18506748	1.60713811	-9.26307102	2.38591918	10.34005442	2.75267840	0.92275698	5.49910122	-1.63827745	8.29646721	0.39297157	3.02511125	9.58312093
3945	39.44000000	8.48169986	0.55904464	5.76398698	8.30855051	0.59792852	3.67115292	10.09265779	-4.85528957	-0.45901212	9.17592143	-2.09276575	0.46444373	0.91552810	-8.26823867	3.73513983	10.14618703	2.12458039	0.95393677	4.89719949	-1.77722682	8.44474672	1.17424098	4.91415814	10.81012896
3946	39.45000000	8.18452896	0.56982553	5.78048321	8.63848352	1.20501843	3.69467120	9.73084605	-5.28554630	-0.44636204	9.03565608	-2.27390904	0.49870464	-0.13627397	-6.52919725	5.25122788	10.16875828	1.71171978	1.06272716	5.11833472	-1.71975407	8.42871383	2.22607070	4.77779599	11.01755080
3947	39.46000000	8.03653875	0.52762153	5.81699234	8.94725455	1.22009572	3.77096553	9.53618453	-4.23722258	-0.61368297	9.08524008	-2.14415103	0.31907008	-0.57634939	-4.75950698	5.86884931	10.07042984	1.62831990	1.39514942	5.09233253	-1.82354154	8.47588007	3.22058729	2.85937349	11.43136924
3948	39.47000000	8.14472216	0.46494640	5.89838865	9.21720850	0.92312973	3.79026400	9.53783472	-2.13489856	-0.76632447	9.09225973	-1.78123171	0.20765816	0.16218817	-4.24421576	5.52403152	9.97402014	1.53593285	1.61183462	5.41322105	-1.87912152	8.05539520	5.11501103	0.05544687	12.39549601
3949	39.48000000	8.35376778	0.42060489	5.94724152	9.33667329	0.35287542	3.82032464	9.53866286	0.25759964	-0.69828297	9.08419549	-1.22357615	0.13674839	1.35185109	-5.84476688	4.44246372	9.83902560	1.40479638	1.43287910	5.34343268	-1.44524104	8.46516730	7.81911637	-2.16747457	13.87260977
3950	39.49000000	8.48210067	0.37760846	6.00419225	9.35050762	-0.14584209	3.73039422	9.54642360	2.22260697	-0.53810669	9.20300915	-0.77739974	0.12773399	2.06076179	-8.50561023	3.07838774	9.61806196	1.21519779	0.92588160	5.21246864	-1.39724565	8.51395248	9.89582441	-3.82105601	15.33568930
3951	39.50000000	8.58364280	0.25874320	5.99107126	9.11656426	-0.36637891	3.70244647	9.47510408	2.96298532	-0.51864549	9.39167809	-0.64478690	0.23449394	2.28872935	-10.43095969	1.32780038	9.10946829	0.63212611	0.28346907	5.36185835	-1.61498590	8.37196107	10.37381581	-5.59027326	15.13298179
3952	39.51000000	8.72994950	0.01320331	5.90365630	8.84437185	-0.36634776	3.65628790	9.42106343	2.37655799	-0.60857264	9.37881581	-0.71485637	0.42843363	2.84038576	-10.50834831	0.01072202	8.61443478	-0.14229815	-0.19602330	5.22001864	-1.57275519	8.32019703	10.00794446	-7.76096872	13.72316133
3953	39.52000000	9.01465698	-0.18518838	5.87825313	8.62062142	-0.16156684	3.59564435	9.80657855	0.90449057	-0.75666784	9.32369912	-0.64809866	0.49113139	4.49039887	-9.91146235	-0.54600332	8.20435112	-1.18412223	-0.25499422	5.20500218	-1.54359500	8.32591040	10.30174298	-9.34120623	12.65628247
3954	39.53000000	9.27184398	-0.36857558	5.64884210	8.52551892	0.17274488	3.45583144	10.16336180	-0.71381077	-0.88411144	9.46209512	-0.71757778	0.37172375	6.30336827	-10.82383699	-1.88753904	7.92719769	-2.36150771	0.09261371	4.71977000	-1.94890335	8.45231324	12.26574921	-8.12567939	12.81048021
3955	39.54000000	9.22112248	-0.41504936	5.78391702	8.53767891	0.51153946	3.24387686	10.25853223	-1.60413193	-0.84143801	9.52623496	-0.84259867	0.10968388	6.05236540	-13.00463083	-3.23223303	7.62940387	-2.66926244	0.44905659	4.79065226	-1.89619939	8.43532392	15.23482395	-4.44777522	15.32033211
3956	39.55000000	8.87495033	-0.39471838	5.61719858	8.62140598	0.83651224	2.96879623	10.12737292	-1.57145073	-0.71441891	9.47133214	-0.91626489	-0.01420394	3.95080024	-12.90887436	-1.94981334	7.10280579	-2.02308031	0.64457770	4.83971986	-1.52349732	8.56919061	20.29983525	-2.66536751	17.64454156
3957	39.56000000	8.64623971	-0.37362762	5.31866419	8.78575847	1.15056671	2.59616872	9.89574589	-0.69294566	-0.23403305	9.45093462	-0.94771689	-0.01048373	2.60038245	-8.90645794	0.12928833	6.35901961	-0.23150362	0.93071993	5.54746693	-1.13606370	8.31679524	23.26375780	-2.18889519	16.86947838
3958	39.57000000	8.82724792	-0.35549137	5.35036154	8.94048544	1.36944189	2.33561792	9.71758972	0.56323589	-0.19573442	9.43933720	-1.08104323	0.13695107	3.78287565	-3.57049535	1.65555803	5.93809961	1.44285512	1.40970713	4.98786282	-1.00138395	8.57998632	23.24355060	-1.07380024	14.37927722
3959	39.58000000	9.22472492	-0.38123725	5.24386714	9.03306986	1.37480734	2.21914604	9.83426592	1.51828293	-0.27775695	9.55471977	-1.22042506	0.46991629	6.56535499	0.15006425	3.12267319	6.12258118	2.25436941	1.56524980	4.98051737	-1.43431262	8.54420246	22.48692849	1.53092558	11.78013638
3960	39.59000000	9.34477505	-0.33911940	5.14915894	9.11780299	1.29459946	2.17741886	9.86020513	1.62774566	-0.50420574	9.67549711	-1.27019217	0.65001891	8.59741287	1.49772906	4.73411151	6.57510454	3.30280101	1.28574163	5.01576727	-1.53603939	8.66002698	21.33408354	5.83757619	10.02707444
3961	39.60000000	9.19095757	-0.32798384	5.21353667	9.19389144	1.14923766	2.10779962	9.99201705	1.45513378	-0.84541478	9.62437451	-1.09523555	0.67725883	9.92778737	1.43541491	5.40986449	7.03024324	4.55056187	0.97781412	5.08329128	-1.45708895	8.33918217	21.40857343	9.22797402	9.67873622
3962	39.61000000	9.08130953	-0.40491525	5.19171977	9.25892149	1.06270860	1.99748373	9.92567409	0.99340513	-0.73744685	9.46508422	-0.81462909	0.52473948	12.33714324	0.68550596	4.26584308	7.78314954	5.49797879	0.89633330	5.09394158	-1.42874552	8.57401005	21.85789707	8.61546340	8.33510304
3963	39.62000000	9.13880681	-0.40317130	5.14766440	9.19195243	1.02730873	2.21218429	9.83411471	0.71400343	-0.67959148	9.47767912	-0.68470635	0.30686675	15.14449337	-0.55780019	2.64419402	8.71718779	5.85192904	1.37334470	5.32787345	-1.42455622	8.47376498	20.75099415	5.26835775	5.81430410
3964	39.63000000	9.38355692	-0.30860423	5.21324133	9.08767091	0.99174258	2.36257182	10.03393432	0.62813527	-0.78094874	9.46403638	-0.81911823	0.07697058	15.26786805	-2.40696695	0.83988368	9.50822142	6.27992799	1.70488327	5.14716120	-1.40488443	8.51589033	19.31929251	2.18708089	3.14750264
3965	39.64000000	9.53257807	-0.29496513	5.27223867	9.12027772	0.81582886	2.43339488	9.94404280	0.41919146	-0.71121269	9.44791266	-1.07463280	-0.15331922	12.95045736	-3.57950639	-0.04368264	9.53425632	7.18883056	1.82265890	5.00914694	-1.25472306	8.69095646	19.13633369	2.51089195	2.04129954
3966	39.65000000	9.43332145	-0.32828381	5.32688660	9.23158174	0.42956009	2.56358224	9.98336507	0.57745746	-0.92086537	9.28882155	-1.45775686	-0.34774212	11.17689716	-2.34280948	-0.68875097	8.84782696	8.27917014	2.00702001	5.53180652	-1.19509859	8.49754934	19.71593712	4.50992255	1.48684254
3967	39.66000000	9.42853616	-0.34875754	5.45639522	9.39793535	-0.04746403	2.74382512	9.93427073	0.78799508	-1.21845586	9.17802215	-1.59498650	-0.53669970	10.82027418	0.73380189	0.12788553	8.52698612	8.94505879	2.32547441	5.32551466	-1.43975538	8.47941201	20.60884282	4.11794018	-0.24176972
3968	39.67000000	9.47132259	-0.32992053	5.53548906	9.53698009	-0.46956013	2.87557052	9.95048422	0.83168767	-1.18341152	9.01600913	-1.67999442	-0.56167694	10.48767626	3.49560033	1.87716810	8.56794897	8.96922045	2.66972706	5.15148140	-1.60055728	8.57854583	22.36867325	1.47366889	-2.03756980
3969	39.68000000	9.42200965	-0.29037548	5.59334316	9.69833936	-0.64300749	2.92333782	9.87804399	0.62160890	-1.37193348	8.95820804	-1.48169804	-0.56214753	9.86896961	5.29495453	2.61220271	8.81073087	7.95027232	2.97295191	5.10101878	-1.81888253	8.54641271	23.71936874	-2.69742741	-4.33375092
